<svg xmlns="http://www.w3.org/2000/svg" viewBox="0 0 1080 1080"><path d="M848.7 134.4a290 290 0 0 1 32 32.8l6.5 7.6c54.8 62.4 85 147 89.8 229.2l.2 3.2A388 388 0 0 1 931 613a329 329 0 0 1-44.6 66.1c-15.5 18.6-15.5 18.6-21.2 23.4-3.3 3-5.6 5.1-6 9.7v92.1l.1 102.2c.2 20.9-1.7 39.5-17 55.3L840 964l-2.2 2.2c-14 13.4-33.5 15.7-51.8 19l-18.5 3.2L753 991l-28.4 5-53.2 9.4-108.3 19.3-22.2 4-3.1.5-98.6 17.8c-18.4 3.4-35.2 3.8-51.2-6.9-7-5-11.4-10.2-15.4-17.8l-1-2c-5.4-11.2-4.9-23.7-4.8-35.9v-18l.1-13.3.1-26.1-2.7.4-55.8 8.6c-27.6 4.2-56-.1-79-16.9L222 913l-2.2-1.8A102 102 0 0 1 188 861l-.8-2.7c-3.1-13.3-2.6-26.7-2.5-40.2V810l.1-40.6.2-44.4h-8l-2.2.1a79 79 0 0 1-54.5-21.2A67 67 0 0 1 102 655c1.5-27 17.3-51.2 29.7-74.6l7.2-13.6 1.5-3L170 507l1.6-3 3.1-6 1.4-2.8 1.3-2.4c1.5-2.8 1.5-2.8 2.8-4.5 5.2-7.7 4.4-16.4 4.3-25.4v-47.1q.2-22.6 3.4-44.8l.3-2.2q.8-6 2-11.7l.6-3.5q9.5-49.8 31.1-95.6l1.2-2.6A360 360 0 0 1 258 197l1.2-1.6a341 341 0 0 1 23.7-29l5.7-6.6q5-5.6 10.4-10.8l7.7-7.8a185 185 0 0 1 24-21.3 381 381 0 0 1 83-51.8A384 384 0 0 1 539 33l2.8-.4c99.1-12.8 204.5 20 307 101.8M531 92l-3 .4a323 323 0 0 0-19 3.6l-2.8.6a343 343 0 0 0-168.3 94.3l-2.6 2.6A195 195 0 0 0 319 212l-4.2 5a283 283 0 0 0-29 43.2 316 316 0 0 0-28.7 65.5 358 358 0 0 0-9.4 36l-.7 3.2c-5.8 29.5-5.4 59.3-5.4 89.2v25.3c0 9-.6 16.4-4.6 24.6l-1.1 2.4a174 174 0 0 1-6 11.3l-1.5 2.6-5.8 11.1q-6.4 12.5-13.1 24.6-9.2 17-17.8 34-7.4 14.8-15.3 29.2-5.7 10.3-11 21l-1.4 2.5-1.1 2.3-1 2a24 24 0 0 0-1.9 13c2 3.3 3.7 4.7 7.4 5.6 11.5 1.9 23 1.8 34.7 1.8h10.8c7.5.2 13.1 2.7 19.3 6.7a34 34 0 0 1 9 25v43.2l.2 85.9A51 51 0 0 0 252 861l1.3 1.9A46 46 0 0 0 281 879c10.2.8 20.2-1 30.2-2.6l31.9-5 28.2-4.3c29.9-4.6 29.9-4.6 43.5 3.6 8.1 8.5 9.5 19 9.5 30.3l.3 36 .1 17.6.3 34.4q11.6-.9 23-3l3.6-.6 9.6-1.7 10.5-1.9 87.5-15.4 41.3-7.3 2.6-.5 75.6-13.3 2.3-.4 92.2-16.3 12.3-2.1 3.7-.6 3.4-.7 3-.5c2.7-.8 3.8-1.4 5.4-3.7q.4-4.5.4-9v-91.3l-.1-29.2v-82.2c-.2-13.8.3-24 9.6-34.8l4.5-4.4 5-4.9 6.7-6.4 1.6-1.5q6-6 11.3-12.3l1.5-1.7a342 342 0 0 0 76.9-248.5A338 338 0 0 0 842 211l-2.4-3a322 322 0 0 0-20.7-22.3l-2.7-2.8A234 234 0 0 0 797 166l-5.5-4.7A272 272 0 0 0 753 135l-2.3-1.3A335 335 0 0 0 617 90l-2.8-.3a351 351 0 0 0-34.1-1q-24.7-.1-49.1 3.3"/><path d="M544.3 244.7h10.8l27.4-.2h10.1c2.4.5 2.4.5 4.1 2.2q2 3.6 3 7.5l1 3.2 1 3.3 1.1 3.5 8.7 28.9 1 3 .8 2.8c.5 2 .5 2 1.7 3.1l5 .1h32l92-.1 3.8-12 1.1-3.4q3-9 5.7-18.3l1.2-3.7 2.1-7.2 1.1-3.6 1-3.2c1-2.7 1.7-3.8 4-5.6 2.5-.4 2.5-.4 5.4-.4h48.3l2.3.4c2.2 3.2 2.2 4.1 1.5 7.8q-1.9 7.4-4.4 14.7l-28.1 87-1 3.1-24.6 76.5c-10.6 33-10.6 33-21 66.2L732.2 532l-.6 1.9-.7 2-9 28.8-2.2 7-.7 2a20 20 0 0 1-7 10.3c-3 .6-3 .6-6.5.6h-21.4l-24.8-.1-9.4-.1c-3.3-.5-4.6-1-6.9-3.4l-2-4.9-1-3-1-3.3-4.1-12.9-3.2-10-6.5-20.2-5.2-16.2-5.7-17.7-23.5-72.9-.7-2.3-15.3-47.2-1.2-3.7-15.4-47.7-.6-2-4.6-14.2-1.2-3.7-1.2-3.7-11.2-34.4c-3-9.3-3-9.3-2.4-14 2.6-2.6 3.7-2.3 7.3-2.3M629 348q1.6 9 4.3 17.8l.6 2.1 2.2 7 5 15.8 7.9 25.5 14.4 46.6.7 2.5 11.2 37.1 1 3.4 1 3c.6 2.2.6 2.2 1.7 4.2h2l46.6-152.7.8-2.4a33 33 0 0 0 1.6-9.9zm-101 37c21.4 19 31.9 43.7 33.8 71.8 1.4 28.9-6.1 57.4-25.8 79.2a277 277 0 0 1-36.3 31.1 264 264 0 0 0-25.1 21l-1.5 1.5a41 41 0 0 0-9.8 15.6l-.7 2-.6 1.8-.5 1.6q-.9 5.2-.7 10.6l-.2 19.8v2.3c-.1 5.2-.1 5.2-2.3 7.4a12 12 0 0 1-7.3 1.7h-3l-30.8.1H414c-7.2 0-7.2 0-10.7-2a21 21 0 0 1-1.8-10.8v-15.5c0-25 5.7-44.8 23.5-63.2l5.7-5 6.5-6q8-7.4 16.9-13.8 11.2-8.5 21.6-18 3-3 6.4-5.6a59 59 0 0 0 20.6-41.2A56 56 0 0 0 491 430a61 61 0 0 0-42-20.2c-19.7-.7-38 2.3-53.5 15.5a56 56 0 0 0-16.6 39.7v3.5l-.2 10.5v3.2c-.7 3.5-1.7 4.6-4.6 6.7-2.6.4-2.6.4-5.6.2l-3.3-.2-3.6-.2-3.6-.2-17-.8-5.3-.2-2.4-.1c-9.1-.4-9.1-.4-12.2-3.5-2.1-32.6 3-63.2 24.9-88.6l2.1-2.4 1.6-1.8c43-46.5 132-45.9 178.4-6.2m-75.8 318.9a38 38 0 0 1 15.4 26.3c1 11.5-1.3 22.2-8.7 31.2a38 38 0 0 1-26.8 12A41 41 0 0 1 403 764a39 39 0 0 1-11.5-28.8c0-11.2 3.3-20 11.1-28.2 14.4-12 33.8-12 49.6-3.2"/></svg>